ffmpeg started on 2026-01-16 at 16:06:13
Report written to "D:\Convert\FFMetrics\reports\ssim_report-6.txt"
Log level: 32
Command line:
ffmpeg -hide_banner -nostdin -r 24000/1001 -i "F:\\Convert\\files\\[DC] Make Heroine ga Oosugiru - 07_Telegram_HEVC(HB-1).mkv" -r 24000/1001 -i "F:\\Convert\\files\\[DC] Make Heroine ga Oosugiru - 07_Telegram.mp4" -lavfi "[0:v]settb=AVTB,setpts=PTS-STARTPTS,format=pix_fmts=yuv420p10le,fps=24000/1001,scale=1920:1080:flags=lanczos:param0=3:out_range=limited:out_color_matrix=bt709:out_chroma_loc=left,setsar=1/1,setdar=(1920/1080)*(1/1),colorspace=format=yuv420p10:range=tv:primaries=bt709:trc=bt709:space=bt709:fast=0[main];[1:v]settb=AVTB,setpts=PTS-STARTPTS,format=pix_fmts=yuv420p,fps=24000/1001,scale=1920:1080:flags=lanczos:param0=3:out_range=limited:out_color_matrix=bt709:out_chroma_loc=left,setsar=1.000,setdar=1.778,colorspace=format=yuv420p:range=tv:primaries=bt709:trc=bt709:space=bt709:fast=0[ref];[main][ref]ssim=eof_action=endall:stats_file='D\\:/Convert/FFMetrics/logs/ssim_logfile-6.txt'" -f null -
Input #0, matroska,webm, from 'F:\Convert\files\[DC] Make Heroine ga Oosugiru - 07_Telegram_HEVC(HB-1).mkv':
  Metadata:
    creation_time   : 2026-01-16T06:57:27.000000Z
    ENCODER         : Lavf61.7.100
  Duration: 00:24:06.81, start: -0.021000, bitrate: 981 kb/s
  Stream #0:0: Video: hevc (Main 10), yuv420p10le(tv, bt709), 1920x1080 [SAR 1:1 DAR 16:9], 23.98 fps, 23.98 tbr, 1k tbn (default)
      Metadata:
        BPS             : 784164
        DURATION        : 00:24:06.569708333
        NUMBER_OF_FRAMES: 34683
        NUMBER_OF_BYTES : 141793499
        _STATISTICS_WRITING_APP: mkvpropedit v94.0 ('Initiate') 64-bit
        _STATISTICS_WRITING_DATE_UTC: 2026-01-16 13:04:42
        _STATISTICS_TAGS: BPS DURATION NUMBER_OF_FRAMES NUMBER_OF_BYTES
  Stream #0:1: Audio: aac (LC), 48000 Hz, stereo, fltp (default)
      Metadata:
        title           : Stereo
        BPS             : 193190
        DURATION        : 00:24:06.784000000
        NUMBER_OF_FRAMES: 67819
        NUMBER_OF_BYTES : 34938166
        _STATISTICS_WRITING_APP: mkvpropedit v94.0 ('Initiate') 64-bit
        _STATISTICS_WRITING_DATE_UTC: 2026-01-16 13:04:42
        _STATISTICS_TAGS: BPS DURATION NUMBER_OF_FRAMES NUMBER_OF_BYTES
Input #1, mov,mp4,m4a,3gp,3g2,mj2, from 'F:\Convert\files\[DC] Make Heroine ga Oosugiru - 07_Telegram.mp4':
  Metadata:
    major_brand     : isom
    minor_version   : 512
    compatible_brands: isomiso2avc1mp41
    encoder         : Lavf60.16.100
  Duration: 00:24:06.74, start: 0.000000, bitrate: 3764 kb/s
  Stream #1:0[0x1](und): Video: h264 (High) (avc1 / 0x31637661), yuv420p(tv, bt709, progressive), 1920x1080 [SAR 1:1 DAR 16:9], 3616 kb/s, 23.98 fps, 23.98 tbr, 24k tbn (default)
      Metadata:
        handler_name    : VideoHandler
        vendor_id       : [0][0][0][0]
        encoder         : Lavc60.31.102 h264_qsv
  Stream #1:1[0x2](und): Audio: aac (HE-AACv2) (mp4a / 0x6134706D), 48000 Hz, stereo, fltp, 144 kb/s (default)
      Metadata:
        handler_name    : SoundHandler
        vendor_id       : [0][0][0][0]
Stream mapping:
  Stream #0:0 (hevc) -> settb:default
  Stream #1:0 (h264) -> settb:default
  ssim:default -> Stream #0:0 (wrapped_avframe)
  Stream #0:1 -> #0:1 (aac (native) -> pcm_s16le (native))
Output #0, null, to 'pipe:':
  Metadata:
    encoder         : Lavf61.7.100
  Stream #0:0: Video: wrapped_avframe, yuv420p10le(tv, bt709, progressive), 1920x1080 [SAR 1:1 DAR 16:9], q=2-31, 200 kb/s, 23.98 fps, 23.98 tbn
      Metadata:
        encoder         : Lavc61.19.100 wrapped_avframe
  Stream #0:1: Audio: pcm_s16le, 48000 Hz, stereo, s16, 1536 kb/s (default)
      Metadata:
        title           : Stereo
        BPS             : 193190
        DURATION        : 00:24:06.784000000
        NUMBER_OF_FRAMES: 67819
        NUMBER_OF_BYTES : 34938166
        _STATISTICS_WRITING_APP: mkvpropedit v94.0 ('Initiate') 64-bit
        _STATISTICS_WRITING_DATE_UTC: 2026-01-16 13:04:42
        _STATISTICS_TAGS: BPS DURATION NUMBER_OF_FRAMES NUMBER_OF_BYTES
        encoder         : Lavc61.19.100 pcm_s16le
frame=  141 fps=0.0 q=-0.0 size=N/A time=00:00:05.88 bitrate=N/A speed=11.4x    frame=  325 fps=316 q=-0.0 size=N/A time=00:00:13.55 bitrate=N/A speed=13.2x    frame=  515 fps=334 q=-0.0 size=N/A time=00:00:21.47 bitrate=N/A speed=  14x    frame=  710 fps=346 q=-0.0 size=N/A time=00:00:29.61 bitrate=N/A speed=14.4x    frame=  889 fps=345 q=-0.0 size=N/A time=00:00:37.07 bitrate=N/A speed=14.4x    frame= 1033 fps=335 q=-0.0 size=N/A time=00:00:43.08 bitrate=N/A speed=  14x    frame= 1201 fps=334 q=-0.0 size=N/A time=00:00:50.09 bitrate=N/A speed=13.9x    frame= 1373 fps=333 q=-0.0 size=N/A time=00:00:57.26 bitrate=N/A speed=13.9x    frame= 1531 fps=330 q=-0.0 size=N/A time=00:01:03.85 bitrate=N/A speed=13.8x    frame= 1674 fps=325 q=-0.0 size=N/A time=00:01:09.81 bitrate=N/A speed=13.5x    frame= 1842 fps=325 q=-0.0 size=N/A time=00:01:16.82 bitrate=N/A speed=13.6x    frame= 2008 fps=325 q=-0.0 size=N/A time=00:01:23.75 bitrate=N/A speed=13.6x    frame= 2117 fps=316 q=-0.0 size=N/A time=00:01:28.29 bitrate=N/A speed=13.2x    frame= 2272 fps=315 q=-0.0 size=N/A time=00:01:34.76 bitrate=N/A speed=13.1x    frame= 2424 fps=314 q=-0.0 size=N/A time=00:01:41.10 bitrate=N/A speed=13.1x    frame= 2556 fps=310 q=-0.0 size=N/A time=00:01:46.60 bitrate=N/A speed=12.9x    frame= 2735 fps=312 q=-0.0 size=N/A time=00:01:54.07 bitrate=N/A speed=  13x    frame= 2914 fps=314 q=-0.0 size=N/A time=00:02:01.53 bitrate=N/A speed=13.1x    frame= 3096 fps=316 q=-0.0 size=N/A time=00:02:09.12 bitrate=N/A speed=13.2x    frame= 3284 fps=319 q=-0.0 size=N/A time=00:02:16.97 bitrate=N/A speed=13.3x    frame= 3480 fps=321 q=-0.0 size=N/A time=00:02:25.14 bitrate=N/A speed=13.4x    frame= 3674 fps=324 q=-0.0 size=N/A time=00:02:33.23 bitrate=N/A speed=13.5x    frame= 3861 fps=326 q=-0.0 size=N/A time=00:02:41.03 bitrate=N/A speed=13.6x    frame= 4054 fps=328 q=-0.0 size=N/A time=00:02:49.08 bitrate=N/A speed=13.7x    frame= 4248 fps=329 q=-0.0 size=N/A time=00:02:57.17 bitrate=N/A speed=13.7x    frame= 4435 fps=331 q=-0.0 size=N/A time=00:03:04.97 bitrate=N/A speed=13.8x    frame= 4626 fps=332 q=-0.0 size=N/A time=00:03:12.94 bitrate=N/A speed=13.9x    frame= 4817 fps=334 q=-0.0 size=N/A time=00:03:20.90 bitrate=N/A speed=13.9x    frame= 5008 fps=335 q=-0.0 size=N/A time=00:03:28.87 bitrate=N/A speed=  14x    frame= 5201 fps=336 q=-0.0 size=N/A time=00:03:36.92 bitrate=N/A speed=  14x    frame= 5389 fps=337 q=-0.0 size=N/A time=00:03:44.76 bitrate=N/A speed=14.1x    frame= 5580 fps=338 q=-0.0 size=N/A time=00:03:52.73 bitrate=N/A speed=14.1x    frame= 5766 fps=339 q=-0.0 size=N/A time=00:04:00.49 bitrate=N/A speed=14.1x    frame= 5952 fps=340 q=-0.0 size=N/A time=00:04:08.24 bitrate=N/A speed=14.2x    frame= 6144 fps=341 q=-0.0 size=N/A time=00:04:16.25 bitrate=N/A speed=14.2x    frame= 6334 fps=341 q=-0.0 size=N/A time=00:04:24.18 bitrate=N/A speed=14.2x    frame= 6529 fps=342 q=-0.0 size=N/A time=00:04:32.31 bitrate=N/A speed=14.3x    frame= 6719 fps=343 q=-0.0 size=N/A time=00:04:40.23 bitrate=N/A speed=14.3x    frame= 6909 fps=344 q=-0.0 size=N/A time=00:04:48.16 bitrate=N/A speed=14.3x    frame= 7090 fps=344 q=-0.0 size=N/A time=00:04:55.71 bitrate=N/A speed=14.3x    frame= 7288 fps=345 q=-0.0 size=N/A time=00:05:03.97 bitrate=N/A speed=14.4x    frame= 7474 fps=345 q=-0.0 size=N/A time=00:05:11.72 bitrate=N/A speed=14.4x    frame= 7654 fps=345 q=-0.0 size=N/A time=00:05:19.23 bitrate=N/A speed=14.4x    frame= 7841 fps=346 q=-0.0 size=N/A time=00:05:27.03 bitrate=N/A speed=14.4x    frame= 8034 fps=346 q=-0.0 size=N/A time=00:05:35.08 bitrate=N/A speed=14.4x    frame= 8209 fps=346 q=-0.0 size=N/A time=00:05:42.38 bitrate=N/A speed=14.4x    frame= 8372 fps=346 q=-0.0 size=N/A time=00:05:49.18 bitrate=N/A speed=14.4x    frame= 8551 fps=346 q=-0.0 size=N/A time=00:05:56.64 bitrate=N/A speed=14.4x    frame= 8738 fps=346 q=-0.0 size=N/A time=00:06:04.44 bitrate=N/A speed=14.4x    frame= 8923 fps=346 q=-0.0 size=N/A time=00:06:12.16 bitrate=N/A speed=14.4x    frame= 9111 fps=347 q=-0.0 size=N/A time=00:06:20.00 bitrate=N/A speed=14.5x    frame= 9295 fps=347 q=-0.0 size=N/A time=00:06:27.67 bitrate=N/A speed=14.5x    frame= 9484 fps=347 q=-0.0 size=N/A time=00:06:35.56 bitrate=N/A speed=14.5x    frame= 9674 fps=347 q=-0.0 size=N/A time=00:06:43.48 bitrate=N/A speed=14.5x    frame= 9854 fps=348 q=-0.0 size=N/A time=00:06:50.99 bitrate=N/A speed=14.5x    frame=10050 fps=348 q=-0.0 size=N/A time=00:06:59.16 bitrate=N/A speed=14.5x    frame=10231 fps=348 q=-0.0 size=N/A time=00:07:06.71 bitrate=N/A speed=14.5x    frame=10422 fps=348 q=-0.0 size=N/A time=00:07:14.68 bitrate=N/A speed=14.5x    frame=10601 fps=349 q=-0.0 size=N/A time=00:07:22.15 bitrate=N/A speed=14.5x    frame=10783 fps=349 q=-0.0 size=N/A time=00:07:29.74 bitrate=N/A speed=14.5x    frame=10975 fps=349 q=-0.0 size=N/A time=00:07:37.74 bitrate=N/A speed=14.6x    frame=11158 fps=349 q=-0.0 size=N/A time=00:07:45.38 bitrate=N/A speed=14.6x    frame=11347 fps=349 q=-0.0 size=N/A time=00:07:53.26 bitrate=N/A speed=14.6x    frame=11532 fps=350 q=-0.0 size=N/A time=00:08:00.98 bitrate=N/A speed=14.6x    frame=11720 fps=350 q=-0.0 size=N/A time=00:08:08.82 bitrate=N/A speed=14.6x    frame=11902 fps=350 q=-0.0 size=N/A time=00:08:16.41 bitrate=N/A speed=14.6x    frame=12081 fps=350 q=-0.0 size=N/A time=00:08:23.87 bitrate=N/A speed=14.6x    frame=12265 fps=350 q=-0.0 size=N/A time=00:08:31.55 bitrate=N/A speed=14.6x    frame=12460 fps=350 q=-0.0 size=N/A time=00:08:39.68 bitrate=N/A speed=14.6x    frame=12647 fps=350 q=-0.0 size=N/A time=00:08:47.48 bitrate=N/A speed=14.6x    frame=12830 fps=351 q=-0.0 size=N/A time=00:08:55.11 bitrate=N/A speed=14.6x    frame=13014 fps=351 q=-0.0 size=N/A time=00:09:02.79 bitrate=N/A speed=14.6x    frame=13198 fps=351 q=-0.0 size=N/A time=00:09:10.46 bitrate=N/A speed=14.6x    frame=13387 fps=351 q=-0.0 size=N/A time=00:09:18.34 bitrate=N/A speed=14.6x    frame=13577 fps=351 q=-0.0 size=N/A time=00:09:26.27 bitrate=N/A speed=14.6x    frame=13750 fps=351 q=-0.0 size=N/A time=00:09:33.48 bitrate=N/A speed=14.6x    frame=13948 fps=351 q=-0.0 size=N/A time=00:09:41.74 bitrate=N/A speed=14.7x    frame=14119 fps=351 q=-0.0 size=N/A time=00:09:48.87 bitrate=N/A speed=14.6x    frame=14301 fps=351 q=-0.0 size=N/A time=00:09:56.47 bitrate=N/A speed=14.6x    frame=14496 fps=351 q=-0.0 size=N/A time=00:10:04.60 bitrate=N/A speed=14.7x    frame=14683 fps=351 q=-0.0 size=N/A time=00:10:12.40 bitrate=N/A speed=14.7x    frame=14861 fps=351 q=-0.0 size=N/A time=00:10:19.82 bitrate=N/A speed=14.7x    frame=15046 fps=351 q=-0.0 size=N/A time=00:10:27.54 bitrate=N/A speed=14.7x    frame=15197 fps=351 q=-0.0 size=N/A time=00:10:33.84 bitrate=N/A speed=14.6x    frame=15385 fps=351 q=-0.0 size=N/A time=00:10:41.68 bitrate=N/A speed=14.6x    frame=15571 fps=351 q=-0.0 size=N/A time=00:10:49.44 bitrate=N/A speed=14.6x    frame=15756 fps=351 q=-0.0 size=N/A time=00:10:57.15 bitrate=N/A speed=14.6x    frame=15939 fps=351 q=-0.0 size=N/A time=00:11:04.78 bitrate=N/A speed=14.6x    frame=16133 fps=351 q=-0.0 size=N/A time=00:11:12.88 bitrate=N/A speed=14.7x    frame=16321 fps=352 q=-0.0 size=N/A time=00:11:20.72 bitrate=N/A speed=14.7x    frame=16501 fps=352 q=-0.0 size=N/A time=00:11:28.22 bitrate=N/A speed=14.7x    frame=16684 fps=352 q=-0.0 size=N/A time=00:11:35.86 bitrate=N/A speed=14.7x    frame=16878 fps=352 q=-0.0 size=N/A time=00:11:43.95 bitrate=N/A speed=14.7x    frame=17062 fps=352 q=-0.0 size=N/A time=00:11:51.62 bitrate=N/A speed=14.7x    frame=17251 fps=352 q=-0.0 size=N/A time=00:11:59.51 bitrate=N/A speed=14.7x    frame=17447 fps=352 q=-0.0 size=N/A time=00:12:07.68 bitrate=N/A speed=14.7x    frame=17630 fps=352 q=-0.0 size=N/A time=00:12:15.31 bitrate=N/A speed=14.7x    frame=17814 fps=352 q=-0.0 size=N/A time=00:12:22.99 bitrate=N/A speed=14.7x    frame=17997 fps=352 q=-0.0 size=N/A time=00:12:30.62 bitrate=N/A speed=14.7x    frame=18191 fps=353 q=-0.0 size=N/A time=00:12:38.71 bitrate=N/A speed=14.7x    frame=18369 fps=353 q=-0.0 size=N/A time=00:12:46.14 bitrate=N/A speed=14.7x    frame=18556 fps=353 q=-0.0 size=N/A time=00:12:53.93 bitrate=N/A speed=14.7x    frame=18752 fps=353 q=-0.0 size=N/A time=00:13:02.11 bitrate=N/A speed=14.7x    frame=18946 fps=353 q=-0.0 size=N/A time=00:13:10.20 bitrate=N/A speed=14.7x    frame=19136 fps=353 q=-0.0 size=N/A time=00:13:18.13 bitrate=N/A speed=14.7x    frame=19329 fps=353 q=-0.0 size=N/A time=00:13:26.18 bitrate=N/A speed=14.7x    frame=19516 fps=353 q=-0.0 size=N/A time=00:13:33.97 bitrate=N/A speed=14.7x    frame=19709 fps=354 q=-0.0 size=N/A time=00:13:42.02 bitrate=N/A speed=14.7x    frame=19899 fps=354 q=-0.0 size=N/A time=00:13:49.95 bitrate=N/A speed=14.8x    frame=20085 fps=354 q=-0.0 size=N/A time=00:13:57.71 bitrate=N/A speed=14.8x    frame=20273 fps=354 q=-0.0 size=N/A time=00:14:05.55 bitrate=N/A speed=14.8x    frame=20461 fps=354 q=-0.0 size=N/A time=00:14:13.39 bitrate=N/A speed=14.8x    frame=20635 fps=354 q=-0.0 size=N/A time=00:14:20.65 bitrate=N/A speed=14.8x    frame=20824 fps=354 q=-0.0 size=N/A time=00:14:28.53 bitrate=N/A speed=14.8x    frame=21016 fps=354 q=-0.0 size=N/A time=00:14:36.54 bitrate=N/A speed=14.8x    frame=21207 fps=354 q=-0.0 size=N/A time=00:14:44.50 bitrate=N/A speed=14.8x    frame=21396 fps=354 q=-0.0 size=N/A time=00:14:52.39 bitrate=N/A speed=14.8x    frame=21587 fps=355 q=-0.0 size=N/A time=00:15:00.35 bitrate=N/A speed=14.8x    frame=21779 fps=355 q=-0.0 size=N/A time=00:15:08.36 bitrate=N/A speed=14.8x    frame=21965 fps=355 q=-0.0 size=N/A time=00:15:16.12 bitrate=N/A speed=14.8x    frame=22153 fps=355 q=-0.0 size=N/A time=00:15:23.96 bitrate=N/A speed=14.8x    frame=22346 fps=355 q=-0.0 size=N/A time=00:15:32.01 bitrate=N/A speed=14.8x    frame=22541 fps=355 q=-0.0 size=N/A time=00:15:40.14 bitrate=N/A speed=14.8x    frame=22724 fps=355 q=-0.0 size=N/A time=00:15:47.78 bitrate=N/A speed=14.8x    frame=22906 fps=355 q=-0.0 size=N/A time=00:15:55.37 bitrate=N/A speed=14.8x    frame=23101 fps=355 q=-0.0 size=N/A time=00:16:03.50 bitrate=N/A speed=14.8x    frame=23290 fps=355 q=-0.0 size=N/A time=00:16:11.38 bitrate=N/A speed=14.8x    frame=23484 fps=356 q=-0.0 size=N/A time=00:16:19.47 bitrate=N/A speed=14.8x    frame=23670 fps=356 q=-0.0 size=N/A time=00:16:27.23 bitrate=N/A speed=14.8x    frame=23861 fps=356 q=-0.0 size=N/A time=00:16:35.20 bitrate=N/A speed=14.8x    frame=24057 fps=356 q=-0.0 size=N/A time=00:16:43.37 bitrate=N/A speed=14.8x    frame=24245 fps=356 q=-0.0 size=N/A time=00:16:51.21 bitrate=N/A speed=14.8x    frame=24431 fps=356 q=-0.0 size=N/A time=00:16:58.97 bitrate=N/A speed=14.8x    frame=24616 fps=356 q=-0.0 size=N/A time=00:17:06.69 bitrate=N/A speed=14.9x    frame=24817 fps=356 q=-0.0 size=N/A time=00:17:15.07 bitrate=N/A speed=14.9x    frame=25002 fps=356 q=-0.0 size=N/A time=00:17:22.79 bitrate=N/A speed=14.9x    frame=25193 fps=356 q=-0.0 size=N/A time=00:17:30.75 bitrate=N/A speed=14.9x    frame=25379 fps=356 q=-0.0 size=N/A time=00:17:38.51 bitrate=N/A speed=14.9x    frame=25569 fps=357 q=-0.0 size=N/A time=00:17:46.44 bitrate=N/A speed=14.9x    frame=25761 fps=357 q=-0.0 size=N/A time=00:17:54.44 bitrate=N/A speed=14.9x    frame=25948 fps=357 q=-0.0 size=N/A time=00:18:02.24 bitrate=N/A speed=14.9x    frame=26139 fps=357 q=-0.0 size=N/A time=00:18:10.21 bitrate=N/A speed=14.9x    frame=26335 fps=357 q=-0.0 size=N/A time=00:18:18.38 bitrate=N/A speed=14.9x    frame=26521 fps=357 q=-0.0 size=N/A time=00:18:26.14 bitrate=N/A speed=14.9x    frame=26709 fps=357 q=-0.0 size=N/A time=00:18:33.98 bitrate=N/A speed=14.9x    frame=26896 fps=357 q=-0.0 size=N/A time=00:18:41.82 bitrate=N/A speed=14.9x    frame=27081 fps=357 q=-0.0 size=N/A time=00:18:49.50 bitrate=N/A speed=14.9x    frame=27264 fps=357 q=-0.0 size=N/A time=00:18:57.13 bitrate=N/A speed=14.9x    frame=27446 fps=357 q=-0.0 size=N/A time=00:19:04.72 bitrate=N/A speed=14.9x    frame=27625 fps=357 q=-0.0 size=N/A time=00:19:12.19 bitrate=N/A speed=14.9x    frame=27821 fps=357 q=-0.0 size=N/A time=00:19:20.36 bitrate=N/A speed=14.9x    frame=28002 fps=357 q=-0.0 size=N/A time=00:19:27.91 bitrate=N/A speed=14.9x    frame=28193 fps=357 q=-0.0 size=N/A time=00:19:35.88 bitrate=N/A speed=14.9x    frame=28377 fps=357 q=-0.0 size=N/A time=00:19:43.55 bitrate=N/A speed=14.9x    frame=28570 fps=357 q=-0.0 size=N/A time=00:19:51.60 bitrate=N/A speed=14.9x    frame=28753 fps=357 q=-0.0 size=N/A time=00:19:59.23 bitrate=N/A speed=14.9x    frame=28926 fps=357 q=-0.0 size=N/A time=00:20:06.45 bitrate=N/A speed=14.9x    frame=29104 fps=357 q=-0.0 size=N/A time=00:20:13.87 bitrate=N/A speed=14.9x    frame=29285 fps=357 q=-0.0 size=N/A time=00:20:21.42 bitrate=N/A speed=14.9x    frame=29470 fps=357 q=-0.0 size=N/A time=00:20:29.14 bitrate=N/A speed=14.9x    frame=29649 fps=357 q=-0.0 size=N/A time=00:20:36.61 bitrate=N/A speed=14.9x    frame=29811 fps=357 q=-0.0 size=N/A time=00:20:43.36 bitrate=N/A speed=14.9x    frame=29983 fps=356 q=-0.0 size=N/A time=00:20:50.54 bitrate=N/A speed=14.9x    frame=30160 fps=356 q=-0.0 size=N/A time=00:20:57.92 bitrate=N/A speed=14.9x    frame=30342 fps=356 q=-0.0 size=N/A time=00:21:05.51 bitrate=N/A speed=14.9x    frame=30526 fps=356 q=-0.0 size=N/A time=00:21:13.18 bitrate=N/A speed=14.9x    frame=30712 fps=356 q=-0.0 size=N/A time=00:21:20.94 bitrate=N/A speed=14.9x    frame=30908 fps=356 q=-0.0 size=N/A time=00:21:29.12 bitrate=N/A speed=14.9x    frame=31096 fps=357 q=-0.0 size=N/A time=00:21:36.96 bitrate=N/A speed=14.9x    frame=31277 fps=357 q=-0.0 size=N/A time=00:21:44.51 bitrate=N/A speed=14.9x    frame=31467 fps=357 q=-0.0 size=N/A time=00:21:52.43 bitrate=N/A speed=14.9x    frame=31656 fps=357 q=-0.0 size=N/A time=00:22:00.31 bitrate=N/A speed=14.9x    frame=31832 fps=357 q=-0.0 size=N/A time=00:22:07.65 bitrate=N/A speed=14.9x    frame=32012 fps=357 q=-0.0 size=N/A time=00:22:15.16 bitrate=N/A speed=14.9x    frame=32206 fps=357 q=-0.0 size=N/A time=00:22:23.25 bitrate=N/A speed=14.9x    frame=32390 fps=357 q=-0.0 size=N/A time=00:22:30.93 bitrate=N/A speed=14.9x    frame=32579 fps=357 q=-0.0 size=N/A time=00:22:38.81 bitrate=N/A speed=14.9x    frame=32734 fps=356 q=-0.0 size=N/A time=00:22:45.28 bitrate=N/A speed=14.9x    frame=32903 fps=356 q=-0.0 size=N/A time=00:22:52.32 bitrate=N/A speed=14.9x    frame=33084 fps=356 q=-0.0 size=N/A time=00:22:59.87 bitrate=N/A speed=14.9x    frame=33264 fps=356 q=-0.0 size=N/A time=00:23:07.38 bitrate=N/A speed=14.9x    frame=33438 fps=356 q=-0.0 size=N/A time=00:23:14.64 bitrate=N/A speed=14.9x    frame=33587 fps=356 q=-0.0 size=N/A time=00:23:20.85 bitrate=N/A speed=14.8x    frame=33743 fps=355 q=-0.0 size=N/A time=00:23:27.36 bitrate=N/A speed=14.8x    frame=33863 fps=355 q=-0.0 size=N/A time=00:23:32.36 bitrate=N/A speed=14.8x    frame=34025 fps=355 q=-0.0 size=N/A time=00:23:39.12 bitrate=N/A speed=14.8x    frame=34190 fps=354 q=-0.0 size=N/A time=00:23:46.00 bitrate=N/A speed=14.8x    frame=34340 fps=354 q=-0.0 size=N/A time=00:23:52.26 bitrate=N/A speed=14.8x    frame=34480 fps=354 q=-0.0 size=N/A time=00:23:58.10 bitrate=N/A speed=14.7x    frame=34658 fps=354 q=-0.0 size=N/A time=00:24:05.52 bitrate=N/A speed=14.7x    [Parsed_ssim_16 @ 000001cd7703e980] SSIM Y:0.994162 (22.337207) U:0.993976 (22.201196) V:0.993584 (21.927425) All:0.994035 (22.243574)
[out#0/null @ 000001cd69aa1d00] video:14903KiB audio:271276KiB subtitle:0KiB other streams:0KiB global headers:0KiB muxing overhead: unknown
frame=34683 fps=354 q=-0.0 Lsize=N/A time=00:24:06.57 bitrate=N/A speed=14.7x    
